<svg xmlns="http://www.w3.org/2000/svg" width="359" height="63.49" viewBox="0 0 359 63.49"><title>Toyota logotype logo - Brandlogos.net</title><path d="M384,482.06H332.5v11.38h19v48.51H365V493.44h19V482.06m50.32,39.55a16.5,16.5,0,0,1-12.44,10.17,17.74,17.74,0,0,1-6.24,0,16.48,16.48,0,0,1-12.43-10.17,26.39,26.39,0,0,1,0-19.23,16.49,16.49,0,0,1,12.43-10.17,17.22,17.22,0,0,1,6.24,0,16.5,16.5,0,0,1,12.44,10.17,26.46,26.46,0,0,1,0,19.23m-15.57-41.36A31.74,31.74,0,1,0,450.45,512,31.75,31.75,0,0,0,418.71,480.26Zm32,1.8h15.87l14.82,25.75,14.82-25.75H512l-23.95,37.73v22.15H474.62V519.79l-24-37.73m93.37,50a18.23,18.23,0,0,0,3.12-.28,16.47,16.47,0,0,0,12.44-10.17,26.27,26.27,0,0,0,0-19.23,16.48,16.48,0,0,0-12.44-10.17,17.75,17.75,0,0,0-6.25,0,16.47,16.47,0,0,0-12.43,10.17,26.32,26.32,0,0,0,0,19.23,16.46,16.46,0,0,0,12.43,10.17,17.87,17.87,0,0,0,3.13.28M512.29,512A31.74,31.74,0,1,1,544,543.75,31.74,31.74,0,0,1,512.29,512Zm155.39,6.24-8.82-23.66L650,518.24h17.65m3.91,10.48H646.1l-4.9,13.19h-15L650.47,482h16.76l24.27,59.89h-15Zm-41.42-46.66H578.71v11.38h19v48.51h13.48V493.44h19V482.06" transform="translate(-332.5 -480.25)" style="fill:#eb0a1e"/></svg>